<?xml version="1.0" encoding="UTF-8" standalone="no"?>
<!-- Created with Inkscape (http://www.inkscape.org/) -->

<svg
   width="350"
   height="350"
   viewBox="0 0 350 350"
   version="1.1"
   id="svg1"
   xmlns="http://www.w3.org/2000/svg"
   xmlns:svg="http://www.w3.org/2000/svg">
  <defs
     id="defs1" />
  <g
     id="layer1">
    <path
       style="display:none;fill:#eeeeee;fill-opacity:1;stroke:none;stroke-width:5.33333;stroke-linecap:round;stroke-opacity:1"
       id="rect168"
       width="350"
       height="350"
       x="0"
       y="0"
       d="m 75,0 h 200 a 75,75 45 0 1 75,75 v 200 a 75,75 135 0 1 -75,75 H 75 A 75,75 45 0 1 0,275 V 75 A 75,75 135 0 1 75,0 Z" />
    <g
       id="layer3"
       style="display:none;stroke:#333333;stroke-opacity:1">
      <path
         style="fill:#ffffff;fill-opacity:1;stroke:#333333;stroke-width:2;stroke-linecap:round;stroke-opacity:1"
         d="M 175,8.4529962 V 20.000002"
         id="path134"
         transform="rotate(30,219.74465,186.98929)" />
      <path
         style="fill:#ffffff;fill-opacity:1;stroke:#333333;stroke-width:2;stroke-linecap:round;stroke-opacity:1"
         d="M 175,8.4529915 V 19.999997"
         id="path135"
         transform="rotate(60,195.76606,186.98929)" />
      <path
         style="fill:#ffffff;fill-opacity:1;stroke:#333333;stroke-width:2;stroke-linecap:round;stroke-opacity:1"
         d="M 175,10 V 20"
         id="path136"
         transform="rotate(90,175,175)" />
      <path
         style="fill:#ffffff;fill-opacity:1;stroke:#333333;stroke-width:2;stroke-linecap:round;stroke-opacity:1"
         d="M 175,8.4529911 V 19.999997"
         id="path137"
         transform="rotate(120,181.92202,186.98929)" />
      <path
         style="fill:#ffffff;fill-opacity:1;stroke:#333333;stroke-width:2;stroke-linecap:round;stroke-opacity:1"
         d="M 175,8.4529907 V 19.999996"
         id="path138"
         transform="rotate(150,178.21252,186.98929)" />
      <path
         style="fill:#ffffff;fill-opacity:1;stroke:#333333;stroke-width:2;stroke-linecap:round;stroke-opacity:1"
         d="M 175,10 V 20"
         id="path139"
         transform="rotate(180,175,175)" />
      <path
         style="fill:#ffffff;fill-opacity:1;stroke:#333333;stroke-width:2;stroke-linecap:round;stroke-opacity:1"
         d="M 175,8.4529907 V 19.999996"
         id="path140"
         transform="rotate(-150,171.78748,186.98929)" />
      <path
         style="fill:#ffffff;fill-opacity:1;stroke:#333333;stroke-width:2;stroke-linecap:round;stroke-opacity:1"
         d="M 175,8.4529911 V 19.999997"
         id="path141"
         transform="rotate(-120,168.07798,186.98929)" />
      <path
         style="fill:#ffffff;fill-opacity:1;stroke:#333333;stroke-width:2;stroke-linecap:round;stroke-opacity:1"
         d="M 175,10 V 20"
         id="path142"
         transform="rotate(-90,175,175)" />
      <path
         style="fill:#ffffff;fill-opacity:1;stroke:#333333;stroke-width:2;stroke-linecap:round;stroke-opacity:1"
         d="M 175,8.4529915 V 19.999997"
         id="path143"
         transform="rotate(-60,154.23394,186.98929)" />
      <path
         style="fill:#ffffff;fill-opacity:1;stroke:#333333;stroke-width:2;stroke-linecap:round;stroke-opacity:1"
         d="M 175,8.4529962 V 20.000002"
         id="path126"
         transform="rotate(-30,130.25535,186.98929)" />
      <path
         style="fill:#ffffff;fill-opacity:1;stroke:#333333;stroke-width:2;stroke-linecap:round;stroke-opacity:1"
         d="M 175,10 V 20"
         id="path127" />
    </g>
  </g>
  <g
     id="layer4">
    <g
       id="hour-hand">
      <path
         style="fill:#eeeeee;fill-opacity:1;stroke:#ffffff;stroke-width:2;stroke-linecap:round;stroke-opacity:1"
         d="M 175,175 V 90"
         id="hour-hand-stem" />
      <path
         style="fill:#333333;fill-opacity:1;stroke:#ffffff;stroke-width:8;stroke-linecap:round;stroke-opacity:1"
         d="M 175,150 V 90"
         id="hour-hand-outer" />
      <path
         style="fill:#333333;fill-opacity:1;stroke:#000000;stroke-width:4;stroke-linecap:round;stroke-opacity:1"
         d="M 175,165 V 105"
         id="hour-hand-inner"
         transform="matrix(1,0,0,-1,0,255)" />
    </g>
    <g
       id="minute-hand"
       style="display:inline">
      <path
         style="fill:#eeeeee;fill-opacity:1;stroke:#ffffff;stroke-width:2;stroke-linecap:round;stroke-opacity:1"
         d="M 175,175 V 60"
         id="minute-hand-stem" />
      <path
         style="fill:#333333;fill-opacity:1;stroke:#ffffff;stroke-width:8;stroke-linecap:round;stroke-opacity:1"
         d="M 175,150 V 60"
         id="minute-hand-outer" />
      <path
         style="fill:#333333;fill-opacity:1;stroke:#000000;stroke-width:4;stroke-linecap:round;stroke-opacity:1"
         d="M 175,195 V 105"
         id="minute-hand-inner"
         transform="matrix(1,0,0,-1,0,255)" />
    </g>
    <g
       id="second-hand"
       style="display:inline">
      <circle
         style="display:inline;fill:#ff1400;fill-opacity:1;stroke:#ffffff;stroke-width:2;stroke-linecap:round;stroke-opacity:1"
         id="path176"
         cx="108.60472"
         cy="112.28252"
         transform="translate(66.395279,62.717484)"
         r="4" />
      <path
         style="fill:#333333;fill-opacity:1;stroke:#ff1400;stroke-width:2;stroke-linecap:round;stroke-opacity:1"
         d="M 175,215 V 30"
         id="second-hand-stem" />
    </g>
  </g>
</svg>
